***************************************************************************
If you've downloaded this torrent on any other website, that's alright, 
because that's what we're here for. However, don't forget to visit
Cuelgame.net, the main website where we usually release everything.
***************************************************************************

///////////////////// PLOT SUMMARY AND DETAILS/////////////////////////////

Title : Otroki vo vselennoy
Year : 1975
Country : Russia
Genre(s) : Family,Science Fiction
Director(s) : Richard Viktorov
Stars :  Misha Yershov, Aleksandr Grigoryev and Vladimir Savin

Plot : The ΓÇ£DAWNΓÇ¥ starship with young cosmonauts is approaching a planet in the Schedar Star system (Alpha Cassiopeia), from which signals for help have been received. They find out that android robots took control of the planet; their goal is to make the planetΓÇÖs residents ΓÇ£happyΓÇ¥ by depriving them of all emotions.

///////////////////////////// OTHER DETAILS //////////////////////////////

Ripper                                   : DiOS
Format                                   : AVI
Format/Info                              : Audio Video Interleave
File size                                : 893 MiB
Duration                                 : 1h 19mn
Overall bit rate                         : 1 567 Kbps

Video ID                                 : 0
Format                                   : MPEG-4 Visual
Format profile                           : Advanced Simple@L5
Format settings, BVOP                    : 2
Format settings, QPel                    : No
Format settings, GMC                     : No warppoints
Format settings, Matrix                  : Default (H.263)
Muxing mode                              : Packed bitstream
Codec ID                                 : XVID
Codec ID/Hint                            : XviD
Duration                                 : 1h 19mn
Bit rate                                 : 1 109 Kbps
Width                                    : 720 pixels
Height                                   : 308 pixels
Display aspect ratio                     : 2.35:1
Frame rate                               : 25.000 fps
Color space                              : YUV
Chroma subsampling                       : 4:2:0
Bit depth                                : 8 bits
Scan type                                : Progressive
Compression mode                         : Lossy
Bits/(Pixel*Frame)                       : 0.200
Stream size                              : 632 MiB (71%)
Writing library                          : XviD 1.2.1 (UTC 2008-12-04)

Audio
ID                                       : 1
Format                                   : AC-3
Format/Info                              : Audio Coding 3
Mode extension                           : CM (complete main)
Format settings, Endianness              : Big
Codec ID                                 : 2000
Duration                                 : 1h 19mn
Bit rate mode                            : Constant
Bit rate                                 : 448 Kbps
Channel(s)                               : 6 channels
Channel positions                        : Front: L C R, Side: L R, LFE
Sampling rate                            : 48.0 KHz
Bit depth                                : 16 bits
Compression mode                         : Lossy
Stream size                              : 255 MiB (29%)
Alignment                                : Aligned on interleaves
Interleave, duration                     : 32 ms (0.80 video frame)
Interleave, preload duration             : 32 ms

 